<svg xmlns="http://www.w3.org/2000/svg" width="650" height="290" fill="none" viewBox="0 0 269.04 86"><style>@keyframes Group_2_115{0%{transform:translateX(-269px) translateY(0);opacity:.1}90%{transform:translateX(-.02px) translateY(0)}}.Group_2_115{animation:1s linear 0s 1 normal forwards running Group_2_115;transform-box:fill-box;transform-origin:50% 50%;transform:translateX(-.02px) translateY(0)}</style><g class="Group_2_115"><path fill="url(#paint0_linear)" d="M0.0396271 3.8147e-06H294.4857 5.38542 94.4375 5.5638 94.4375 5.80469V7H94.1133V5.60742C94.1133 5.43685 94.0768 5.30924 94.0039 5.22461C93.931 5.13867 93.8171 5.0957 93.6621 5.0957C93.459 5.0957 93.3099 5.1569 93.2148 5.2793C93.1211 5.40039 93.0742 5.59961 93.0742 5.87695V7H92.75V4.85938H93.0137L93.0664 5.15234H93.082C93.1432 5.04818 93.2292 4.9668 93.3398 4.9082C93.4518 4.84961 93.5768 4.82031 93.7148 4.82031C94.0495 4.82031 94.2682 4.94141 94.3711 5.18359H94.3867C94.4505 5.07161 94.543 4.98307 94.6641 4.91797C94.7852 4.85286 94.9232 4.82031 95.0781 4.82031C95.3203 4.82031 95.5013 4.88281 95.6211 5.00781C95.7422 5.13151 95.8027 5.33008 95.8027 5.60352V7H95.4785Z" opacity=".7" transform="translate(-0.02 75)"/></g><defs><linearGradient id="paint0_linear" x1="134.54" x2="134.54" y1="0" y2="86" gradientUnits="userSpaceOnUse"><stop stop-color="#3DF55B"/><stop offset="1" stop-color="#00FFD1"/></linearGradient></defs><h1>Warning, Read Failure</h1></svg>