<svg xmlns="http://www.w3.org/2000/svg" width="269" height="86" fill="none" viewBox="0 0 269 86"><style>@keyframes Group_2_207{0%{transform:translateX(-269px) translateY(0);opacity:.1}90%{transform:translateX(0) translateY(0)}}.Group_2_207{animation:1s linear 0s 1 normal forwards running Group_2_207;transform-box:fill-box;transform-origin:50% 50%;transform:translateX(0) translateY(0)}</style><g class="Group_2_207"><path fill="url(#paint0_radial)" d="M0 0H269V32C269 61.8234 244.823 86 215 86H0V0Z" transform="translate(0 0)"/><path fill="#fff" d="M6.54297 5.54492C6.54297 6.01628 6.41471 6.37695 6.1582 6.62695C5.90299 6.87565 5.53516 7 5.05469 7H4.26367V4.14453H5.13867C5.58268 4.14453 5.92773 4.26758 6.17383 4.51367C6.41992 4.75977 6.54297 5.10352 6.54297 5.54492ZM6.19141 5.55664C6.19141 5.18424 6.09766 4.90365 5.91016 4.71484C5.72396 4.52604 5.44661 4.43164 5.07812 4.43164H4.5957V6.71289H5C5.39583 6.71289 5.69336 6.61589 5.89258 6.42188C6.0918 6.22656 6.19141 5.93815 6.19141 5.55664ZM8.03711 7.03906C7.7207 7.03906 7.4707 6.94271 7.28711 6.75C7.10482 6.55729 7.01367 6.28971 7.01367 5.94727C7.01367 5.60221 7.09831 5.32812 7.26758 5.125C7.43815 4.92188 7.66667 4.82031 7.95312 4.82031C8.22135 4.82031 8.43359 4.90885 8.58984 5.08594C8.74609 5.26172 8.82422 5.49414 8.82422 5.7832V5.98828H7.34961C7.35612 6.23958 7.41927 6.43034 7.53906 6.56055C7.66016 6.69076 7.83008 6.75586 8.04883 6.75586C8.2793 6.75586 8.50716 6.70768 8.73242 6.61133V6.90039C8.61784 6.94987 8.50911 6.98503 8.40625 7.00586C8.30469 7.02799 8.18164 7.03906 8.03711 7.03906ZM7.94922 5.0918C7.77734 5.0918 7.63997 5.14779 7.53711 5.25977C7.43555 5.37174 7.37565 5.52669 7.35742 5.72461H8.47656C8.47656 5.52018 8.43099 5.36393 8.33984 5.25586C8.2487 5.14648 8.11849 5.0918 7.94922 5.0918ZM10.7598 6.41602C10.7598 6.61523 10.6855 6.76888 10.5371 6.87695C10.3887 6.98503 10.1803 7.03906 9.91211 7.03906C9.62826 7.03906 9.4069 6.99414 9.24805 6.9043V6.60352C9.35091 6.6556 9.46094 6.69661 9.57812 6.72656C9.69661 6.75651 9.81055 6.77148 9.91992 6.77148C10.0892 6.77148 10.2194 6.74479 10.3105 6.69141C10.4017 6.63672 10.4473 6.55404 10.4473 6.44336C10.4473 6.36003 10.4108 6.28906 10.3379 6.23047C10.2663 6.17057 10.1257 6.10026 9.91602 6.01953C9.7168 5.94531 9.57487 5.88086 9.49023 5.82617C9.4069 5.77018 9.3444 5.70703 9.30273 5.63672C9.26237 5.56641 9.24219 5.48242 9.24219 5.38477C9.24219 5.21029 9.31315 5.07292 9.45508 4.97266C9.59701 4.87109 9.79167 4.82031 10.0391 4.82031C10.2695 4.82031 10.4948 4.86719 10.7148 4.96094L10.5996 5.22461C10.3848 5.13607 10.1901 5.0918 10.0156 5.0918C9.86198 5.0918 9.74609 5.11589 9.66797 5.16406C9.58984 5.21224 9.55078 5.27865 9.55078 5.36328C9.55078 5.42057 9.5651 5.4694 9.59375 5.50977C9.6237 5.55013 9.67122 5.58854 9.73633 5.625C9.80143 5.66146 9.92643 5.71419 10.1113 5.7832C10.3652 5.87565 10.5365 5.96875 10.625 6.0625C10.7148 6.15625 10.7598 6.27409 10.7598 6.41602ZM11.6133 7H11.2891V4.85938H11.6133V7ZM11.2617 4.2793C11.2617 4.20508 11.2799 4.15104 11.3164 4.11719C11.3529 4.08203 11.3984 4.06445 11.4531 4.06445C11.5052 4.06445 11.5501 4.08203 11.5879 4.11719C11.6257 4.15234 11.6445 4.20638 11.6445 4.2793C11.6445 4.35221 11.6257 4.4069 11.5879 4.44336C11.5501 4.47852 11.5052 4.49609 11.4531 4.49609C11.3984 4.49609 11.3529 4.47852 11.3164 4.44336C11.2799 4.4069 11.2617 4.35221 11.2617 4.2793ZM14.0527 4.85938V5.06445L13.6562 5.11133C13.6927 5.1569 13.7253 5.2168 13.7539 5.29102C13.7826 5.36393 13.7969 5.44661 13.7969 5.53906C13.7969 5.7487 13.7253 5.91602 13.582 6.04102C13.4388 6.16602 13.2422 6.22852 12.9922 6.22852C12.9284 6.22852 12.8685 6.22331 12.8125 6.21289C12.6745 6.28581 12.6055 6.3776 12.6055 6.48828C12.6055 6.54688 12.6296 6.59049 12.6777 6.61914C12.7259 6.64648 12.8086 6.66016 12.9258 6.66016H13.3047C13.5365 6.66016 13.7142 6.70898 13.8379 6.80664C13.9629 6.9043 14.0254 7.04622 14.0254 7.23242C14.0254 7.4694 13.9303 7.64974 13.7402 7.77344C13.5501 7.89844 13.2728 7.96094 12.9082 7.96094C12.6283 7.96094 12.4121 7.90885 12.2598 7.80469C12.1087 7.70052 12.0332 7.55339 12.0332 7.36328C12.0332 7.23307 12.0749 7.12044 12.1582 7.02539C12.2415 6.93034 12.3587 6.86589 12.5098 6.83203C12.4551 6.80729 12.4089 6.76888 12.3711 6.7168C12.3346 6.66471 12.3164 6.60417 12.3164 6.53516C12.3164 6.45703 12.3372 6.38867 12.3789 6.33008C12.4206 6.27148 12.4863 6.21484 12.5762 6.16016C12.4655 6.11458 12.375 6.03711 12.3047 5.92773C12.2357 5.81836 12.2012 5.69336 12.2012 5.55273C12.2012 5.31836 12.2715 5.13802 12.4121 5.01172C12.5527 4.88411 12.752 4.82031 13.0098 4.82031C13.1217 4.82031 13.2227 4.83333 13.3125 4.85938H14.0527ZM12.3457 7.35938C12.3457 7.47526 12.3945 7.56315 12.4922 7.62305C12.5898 7.68294 12.7298 7.71289 12.9121 7.71289C13.1842 7.71289 13.3854 7.67188 13.5156 7.58984C13.6471 7.50911 13.7129 7.39909 13.7129 7.25977C13.7129 7.14388 13.6771 7.06315 13.6055 7.01758C13.5339 6.97331 13.3991 6.95117 13.2012 6.95117H12.8125C12.6654 6.95117 12.5508 6.98633 12.4688 7.05664C12.3867 7.12695 12.3457 7.22786 12.3457 7.35938ZM12.5215 5.54492C12.5215 5.69466 12.5638 5.80794 12.6484 5.88477C12.7331 5.96159 12.8509 6 13.002 6C13.3184 6 13.4766 5.84635 13.4766 5.53906C13.4766 5.21745 13.3164 5.05664 12.9961 5.05664C12.8438 5.05664 12.7266 5.09766 12.6445 5.17969C12.5625 5.26172 12.5215 5.38346 12.5215 5.54492ZM15.957 7V5.61523C15.957 5.44076 15.9173 5.31055 15.8379 5.22461C15.7585 5.13867 15.6341 5.0957 15.4648 5.0957C15.2409 5.0957 15.0768 5.15625 14.9727 5.27734C14.8685 5.39844 14.8164 5.59831 14.8164 5.87695V7H14.4922V4.85938H14.7559L14.8086 5.15234H14.8242C14.8906 5.04688 14.9837 4.96549 15.1035 4.9082C15.2233 4.84961 15.3568 4.82031 15.5039 4.82031C15.7617 4.82031 15.9557 4.88281 16.0859 5.00781C16.2161 5.13151 16.2812 5.33008 16.2812 5.60352V7H15.957ZM17.8535 7.03906C17.5371 7.03906 17.2871 6.94271 17.1035 6.75C16.9212 6.55729 16.8301 6.28971 16.8301 5.94727C16.8301 5.60221 16.9147 5.32812 17.084 5.125C17.2546 4.92188 17.4831 4.82031 17.7695 4.82031C18.0378 4.82031 18.25 4.90885 18.4062 5.08594C18.5625 5.26172 18.6406 5.49414 18.6406 5.7832V5.98828H17.166C17.1725 6.23958 17.2357 6.43034 17.3555 6.56055C17.4766 6.69076 17.6465 6.75586 17.8652 6.75586C18.0957 6.75586 18.3236 6.70768 18.5488 6.61133V6.90039C18.4342 6.94987 18.3255 6.98503 18.2227 7.00586C18.1211 7.02799 17.998 7.03906 17.8535 7.03906ZM17.7656 5.0918C17.5938 5.0918 17.4564 5.14779 17.3535 5.25977C17.252 5.37174 17.1921 5.52669 17.1738 5.72461H18.293C18.293 5.52018 18.2474 5.36393 18.1562 5.25586C18.0651 5.14648 17.9349 5.0918 17.7656 5.0918ZM20.6523 6.71289H20.6348C20.485 6.93034 20.2611 7.03906 19.9629 7.03906C19.6829 7.03906 19.4648 6.94336 19.3086 6.75195C19.1536 6.56055 19.0762 6.28841 19.0762 5.93555C19.0762 5.58268 19.1543 5.30859 19.3105 5.11328C19.4668 4.91797 19.6842 4.82031 19.9629 4.82031C20.2533 4.82031 20.4759 4.92578 20.6309 5.13672H20.6562L20.6426 4.98242L20.6348 4.83203V3.96094H20.959V7H20.6953L20.6523 6.71289ZM20.0039 6.76758C20.2253 6.76758 20.3854 6.70768 20.4844 6.58789C20.5846 6.4668 20.6348 6.27214 20.6348 6.00391V5.93555C20.6348 5.63216 20.584 5.41602 20.4824 5.28711C20.3822 5.1569 20.2214 5.0918 20 5.0918C19.8099 5.0918 19.6641 5.16602 19.5625 5.31445C19.4622 5.46159 19.4121 5.66992 19.4121 5.93945C19.4121 6.21289 19.4622 6.41927 19.5625 6.55859C19.6628 6.69792 19.8099 6.76758 20.0039 6.76758ZM24.0039 7L23.9395 6.69531H23.9238C23.8171 6.82943 23.7103 6.92057 23.6035 6.96875C23.498 7.01562 23.3659 7.03906 23.207 7.03906C22.9948 7.03906 22.8281 6.98438 22.707 6.875C22.5872 6.76562 22.5273 6.61003 22.5273 6.4082C22.5273 5.97591 22.873 5.74935 23.5645 5.72852L23.9277 5.7168V5.58398C23.9277 5.41602 23.8913 5.29232 23.8184 5.21289C23.7467 5.13216 23.6315 5.0918 23.4727 5.0918C23.2943 5.0918 23.0924 5.14648 22.8672 5.25586L22.7676 5.00781C22.873 4.95052 22.9883 4.9056 23.1133 4.87305C23.2396 4.84049 23.3659 4.82422 23.4922 4.82422C23.7474 4.82422 23.9362 4.88086 24.0586 4.99414C24.1823 5.10742 24.2441 5.28906 24.2441 5.53906V7H24.0039ZM23.2715 6.77148C23.4733 6.77148 23.6315 6.71615 23.7461 6.60547C23.862 6.49479 23.9199 6.33984 23.9199 6.14062V5.94727L23.5957 5.96094C23.3379 5.97005 23.1517 6.01042 23.0371 6.08203C22.9238 6.15234 22.8672 6.26237 22.8672 6.41211C22.8672 6.5293 22.9023 6.61849 22.9727 6.67969C23.0443 6.74089 23.1439 6.77148 23.2715 6.77148ZM26.3789 7V5.61523C26.3789 5.44076 26.3392 5.31055 26.2598 5.22461C26.1803 5.13867 26.056 5.0957 25.8867 5.0957C25.6628 5.0957 25.4987 5.15625 25.3945 5.27734C25.2904 5.39844 25.2383 5.59831 25.2383 5.87695V7H24.9141V4.85938H25.1777L25.2305 5.15234H25.2461C25.3125 5.04688 25.4056 4.96549 25.5254 4.9082C25.6452 4.84961 25.7786 4.82031 25.9258 4.82031C26.1836 4.82031 26.3776 4.88281 26.5078 5.00781C26.638 5.13151 26.7031 5.33008 26.7031 5.60352V7H26.3789ZM28.8281 6.71289H28.8105C28.6608 6.93034 28.4368 7.03906 28.1387 7.03906C27.8587 7.03906 27.6406 6.94336 27.4844 6.75195C27.3294 6.56055 27.252 6.28841 27.252 5.93555C27.252 5.58268 27.3301 5.30859 27.4863 5.11328C27.6426 4.91797 27.86 4.82031 28.1387 4.82031C28.429 4.82031 28.6517 4.92578 28.8066 5.13672H28.832L28.8184 4.98242L28.8105 4.83203V3.96094H29.1348V7H28.8711L28.8281 6.71289ZM28.1797 6.76758C28.401 6.76758 28.5612 6.70768 28.6602 6.58789C28.7604 6.4668 28.8105 6.27214 28.8105 6.00391V5.93555C28.8105 5.63216 28.7598 5.41602 28.6582 5.28711C28.5579 5.1569 28.3971 5.0918 28.1758 5.0918C27.9857 5.0918 27.8398 5.16602 27.7383 5.31445C27.638 5.46159 27.5879 5.66992 27.5879 5.93945C27.5879 6.21289 27.638 6.41927 27.7383 6.55859C27.8385 6.69792 27.9857 6.76758 28.1797 6.76758ZM33.1914 5.54492C33.1914 6.01628 33.0632 6.37695 32.8066 6.62695C32.5514 6.87565 32.1836 7 31.7031 7H30.9121V4.14453H31.7871C32.2311 4.14453 32.5762 4.26758 32.8223 4.51367C33.0684 4.75977 33.1914 5.10352 33.1914 5.54492ZM32.8398 5.55664C32.8398 5.18424 32.7461 4.90365 32.5586 4.71484C32.3724 4.52604 32.0951 4.43164 31.7266 4.43164H31.2441V6.71289H31.6484C32.0443 6.71289 32.3418 6.61589 32.541 6.42188C32.7402 6.22656 32.8398 5.93815 32.8398 5.55664ZM34.6855 7.03906C34.3691 7.03906 34.1191 6.94271 33.9355 6.75C33.7533 6.55729 33.6621 6.28971 33.6621 5.94727C33.6621 5.60221 33.7467 5.32812 33.916 5.125C34.0866 4.92188 34.3151 4.82031 34.6016 4.82031C34.8698 4.82031 35.082 4.90885 35.2383 5.08594C35.3945 5.26172 35.4727 5.49414 35.4727 5.7832V5.98828H33.998C34.0046 6.23958 34.0677 6.43034 34.1875 6.56055C34.3086 6.69076 34.4785 6.75586 34.6973 6.75586C34.9277 6.75586 35.1556 6.70768 35.3809 6.61133V6.90039C35.2663 6.94987 35.1576 6.98503 35.0547 7.00586C34.9531 7.02799 34.8301 7.03906 34.6855 7.03906ZM34.5977 5.0918C34.4258 5.0918 34.2884 5.14779 34.1855 5.25977C34.084 5.37174 34.0241 5.52669 34.0059 5.72461H35.125C35.125 5.52018 35.0794 5.36393 34.9883 5.25586C34.8971 5.14648 34.7669 5.0918 34.5977 5.0918ZM36.4961 7L35.6836 4.85938H36.0312L36.4922 6.12891C36.5964 6.42578 36.6576 6.61849 36.6758 6.70703H36.6914C36.7057 6.63802 36.7507 6.49544 36.8262 6.2793C36.903 6.06185 37.0742 5.58854 37.3398 4.85938H37.6875L36.875 7H36.4961ZM38.9355 7.03906C38.6191 7.03906 38.3691 6.94271 38.1855 6.75C38.0033 6.55729 37.9121 6.28971 37.9121 5.94727C37.9121 5.60221 37.9967 5.32812 38.166 5.125C38.3366 4.92188 38.5651 4.82031 38.8516 4.82031C39.1198 4.82031 39.332 4.90885 39.4883 5.08594C39.6445 5.26172 39.7227 5.49414 39.7227 5.7832V5.98828H38.248C38.2546 6.23958 38.3177 6.43034 38.4375 6.56055C38.5586 6.69076 38.7285 6.75586 38.9473 6.75586C39.1777 6.75586 39.4056 6.70768 39.6309 6.61133V6.90039C39.5163 6.94987 39.4076 6.98503 39.3047 7.00586C39.2031 7.02799 39.0801 7.03906 38.9355 7.03906ZM38.8477 5.0918C38.6758 5.0918 38.5384 5.14779 38.4355 5.25977C38.334 5.37174 38.2741 5.52669 38.2559 5.72461H39.375C39.375 5.52018 39.3294 5.36393 39.2383 5.25586C39.1471 5.14648 39.0169 5.0918 38.8477 5.0918ZM40.6016 7H40.2773V3.96094H40.6016V7ZM43.1367 5.92773C43.1367 6.27669 43.0488 6.54948 42.873 6.74609C42.6973 6.94141 42.4544 7.03906 42.1445 7.03906C41.9531 7.03906 41.7832 6.99414 41.6348 6.9043C41.4863 6.81445 41.3717 6.68555 41.291 6.51758C41.2103 6.34961 41.1699 6.15299 41.1699 5.92773C41.1699 5.57878 41.2572 5.30729 41.4316 5.11328C41.6061 4.91797 41.8483 4.82031 42.1582 4.82031C42.4577 4.82031 42.6953 4.91992 42.8711 5.11914C43.0482 5.31836 43.1367 5.58789 43.1367 5.92773ZM41.5059 5.92773C41.5059 6.20117 41.5605 6.40951 41.6699 6.55273C41.7793 6.69596 41.9401 6.76758 42.1523 6.76758C42.3646 6.76758 42.5254 6.69661 42.6348 6.55469C42.7454 6.41146 42.8008 6.20247 42.8008 5.92773C42.8008 5.6556 42.7454 5.44922 42.6348 5.30859C42.5254 5.16667 42.3633 5.0957 42.1484 5.0957C41.9362 5.0957 41.776 5.16536 41.668 5.30469C41.5599 5.44401 41.5059 5.65169 41.5059 5.92773ZM44.7031 7.03906C44.5638 7.03906 44.4362 7.01367 44.3203 6.96289C44.2057 6.91081 44.1094 6.83138 44.0312 6.72461H44.0078C44.0234 6.84961 44.0312 6.9681 44.0312 7.08008V7.96094H43.707V4.85938H43.9707L44.0156 5.15234H44.0312C44.1146 5.03516 44.2116 4.95052 44.3223 4.89844C44.4329 4.84635 44.5599 4.82031 44.7031 4.82031C44.987 4.82031 45.2057 4.91732 45.3594 5.11133C45.5143 5.30534 45.5918 5.57747 45.5918 5.92773C45.5918 6.2793 45.513 6.55273 45.3555 6.74805C45.1992 6.94206 44.9818 7.03906 44.7031 7.03906ZM44.6562 5.0957C44.4375 5.0957 44.2793 5.15625 44.1816 5.27734C44.084 5.39844 44.0339 5.59115 44.0312 5.85547V5.92773C44.0312 6.22852 44.0814 6.44401 44.1816 6.57422C44.2819 6.70312 44.4427 6.76758 44.6641 6.76758C44.849 6.76758 44.9935 6.69271 45.0977 6.54297C45.2031 6.39323 45.2559 6.18685 45.2559 5.92383C45.2559 5.6569 45.2031 5.45247 45.0977 5.31055C44.9935 5.16732 44.8464 5.0957 44.6562 5.0957ZM47.0645 7.03906C46.748 7.03906 46.498 6.94271 46.3145 6.75C46.1322 6.55729 46.041 6.28971 46.041 5.94727C46.041 5.60221 46.1257 5.32812 46.2949 5.125C46.4655 4.92188 46.694 4.82031 46.9805 4.82031C47.2487 4.82031 47.4609 4.90885 47.6172 5.08594C47.7734 5.26172 47.8516 5.49414 47.8516 5.7832V5.98828H46.377C46.3835 6.23958 46.4466 6.43034 46.5664 6.56055C46.6875 6.69076 46.8574 6.75586 47.0762 6.75586C47.3066 6.75586 47.5345 6.70768 47.7598 6.61133V6.90039C47.6452 6.94987 47.5365 6.98503 47.4336 7.00586C47.332 7.02799 47.209 7.03906 47.0645 7.03906ZM46.9766 5.0918C46.8047 5.0918 46.6673 5.14779 46.5645 5.25977C46.4629 5.37174 46.403 5.52669 46.3848 5.72461H47.5039C47.5039 5.52018 47.4583 5.36393 47.3672 5.25586C47.276 5.14648 47.1458 5.0918 46.9766 5.0918ZM49.8633 6.71289H49.8457C49.696 6.93034 49.472 7.03906 49.1738 7.03906C48.8939 7.03906 48.6758 6.94336 48.5195 6.75195C48.3646 6.56055 48.2871 6.28841 48.2871 5.93555C48.2871 5.58268 48.3652 5.30859 48.5215 5.11328C48.6777 4.91797 48.8952 4.82031 49.1738 4.82031C49.4642 4.82031 49.6868 4.92578 49.8418 5.13672H49.8672L49.8535 4.98242L49.8457 4.83203V3.96094H50.1699V7H49.9062L49.8633 6.71289ZM49.2148 6.76758C49.4362 6.76758 49.5964 6.70768 49.6953 6.58789C49.7956 6.4668 49.8457 6.27214 49.8457 6.00391V5.93555C49.8457 5.63216 49.7949 5.41602 49.6934 5.28711C49.5931 5.1569 49.4323 5.0918 49.2109 5.0918C49.0208 5.0918 48.875 5.16602 48.7734 5.31445C48.6732 5.46159 48.623 5.66992 48.623 5.93945C48.623 6.21289 48.6732 6.41927 48.7734 6.55859C48.8737 6.69792 49.0208 6.76758 49.2148 6.76758ZM52.8945 4.82422C53.1758 4.82422 53.3939 4.92057 53.5488 5.11328C53.7051 5.30469 53.7832 5.57617 53.7832 5.92773C53.7832 6.2793 53.7044 6.55273 53.5469 6.74805C53.3906 6.94206 53.1732 7.03906 52.8945 7.03906C52.7552 7.03906 52.6276 7.01367 52.5117 6.96289C52.3971 6.91081 52.3008 6.83138 52.2227 6.72461H52.1992L52.1309 7H51.8984V3.96094H52.2227V4.69922C52.2227 4.86458 52.2174 5.01302 52.207 5.14453H52.2227C52.3737 4.93099 52.5977 4.82422 52.8945 4.82422ZM52.8477 5.0957C52.6263 5.0957 52.4668 5.15951 52.3691 5.28711C52.2715 5.41341 52.2227 5.62695 52.2227 5.92773C52.2227 6.22852 52.2728 6.44401 52.373 6.57422C52.4733 6.70312 52.6341 6.76758 52.8555 6.76758C53.0547 6.76758 53.2031 6.69531 53.3008 6.55078C53.3984 6.40495 53.4473 6.19596 53.4473 5.92383C53.4473 5.64518 53.3984 5.4375 53.3008 5.30078C53.2031 5.16406 53.0521 5.0957 52.8477 5.0957ZM54.0117 4.85938H54.3594L54.8281 6.08008C54.931 6.35872 54.9948 6.5599 55.0195 6.68359H55.0352C55.0521 6.61719 55.0872 6.50391 55.1406 6.34375C55.1953 6.18229 55.3724 5.6875 55.6719 4.85938H56.0195L55.0996 7.29688C55.0085 7.53776 54.9017 7.70833 54.7793 7.80859C54.6582 7.91016 54.5091 7.96094 54.332 7.96094C54.2331 7.96094 54.1354 7.94987 54.0391 7.92773V7.66797C54.1107 7.68359 54.1908 7.69141 54.2793 7.69141C54.502 7.69141 54.6608 7.56641 54.7559 7.31641L54.875 7.01172L54.0117 4.85938ZM58.0977 6.77148C58.1549 6.77148 58.2103 6.76758 58.2637 6.75977C58.3171 6.75065 58.3594 6.74154 58.3906 6.73242V6.98047C58.3555 6.9974 58.3034 7.01107 58.2344 7.02148C58.1667 7.0332 58.1055 7.03906 58.0508 7.03906C57.6367 7.03906 57.4297 6.82096 57.4297 6.38477V5.11133H57.123V4.95508L57.4297 4.82031L57.5664 4.36328H57.7539V4.85938H58.375V5.11133H57.7539V6.37109C57.7539 6.5 57.7845 6.59896 57.8457 6.66797C57.9069 6.73698 57.9909 6.77148 58.0977 6.77148ZM60.2852 7V5.61523C60.2852 5.44076 60.2454 5.31055 60.166 5.22461C60.0866 5.13867 59.9622 5.0957 59.793 5.0957C59.5677 5.0957 59.403 5.1569 59.2988 5.2793C59.196 5.40169 59.1445 5.60221 59.1445 5.88086V7H58.8203V3.96094H59.1445V4.88086C59.1445 4.99154 59.1393 5.08333 59.1289 5.15625H59.1484C59.2122 5.05339 59.3027 4.97266 59.4199 4.91406C59.5384 4.85417 59.6732 4.82422 59.8242 4.82422C60.0859 4.82422 60.2819 4.88672 60.4121 5.01172C60.5436 5.13542 60.6094 5.33268 60.6094 5.60352V7H60.2852ZM62.1816 7.03906C61.8652 7.03906 61.6152 6.94271 61.4316 6.75C61.2493 6.55729 61.1582 6.28971 61.1582 5.94727C61.1582 5.60221 61.2428 5.32812 61.4121 5.125C61.5827 4.92188 61.8112 4.82031 62.0977 4.82031C62.3659 4.82031 62.5781 4.90885 62.7344 5.08594C62.8906 5.26172 62.9688 5.49414 62.9688 5.7832V5.98828H61.4941C61.5007 6.23958 61.5638 6.43034 61.6836 6.56055C61.8047 6.69076 61.9746 6.75586 62.1934 6.75586C62.4238 6.75586 62.6517 6.70768 62.877 6.61133V6.90039C62.7624 6.94987 62.6536 6.98503 62.5508 7.00586C62.4492 7.02799 62.3262 7.03906 62.1816 7.03906ZM62.0938 5.0918C61.9219 5.0918 61.7845 5.14779 61.6816 5.25977C61.5801 5.37174 61.5202 5.52669 61.502 5.72461H62.6211C62.6211 5.52018 62.5755 5.36393 62.4844 5.25586C62.3932 5.14648 62.263 5.0918 62.0938 5.0918ZM66.2227 6.24023C66.2227 6.49154 66.1315 6.6875 65.9492 6.82812C65.7669 6.96875 65.5195 7.03906 65.207 7.03906C64.8685 7.03906 64.6081 6.99544 64.4258 6.9082V6.58789C64.543 6.63737 64.6706 6.67643 64.8086 6.70508C64.9466 6.73372 65.0833 6.74805 65.2188 6.74805C65.4401 6.74805 65.6068 6.70638 65.7188 6.62305C65.8307 6.53841 65.8867 6.42122 65.8867 6.27148C65.8867 6.17253 65.8665 6.0918 65.8262 6.0293C65.7871 5.96549 65.7207 5.9069 65.627 5.85352C65.5345 5.80013 65.3932 5.73958 65.2031 5.67188C64.9375 5.57682 64.7474 5.46419 64.6328 5.33398C64.5195 5.20378 64.4629 5.03385 64.4629 4.82422C64.4629 4.60417 64.5456 4.42904 64.7109 4.29883C64.8763 4.16862 65.0951 4.10352 65.3672 4.10352C65.651 4.10352 65.9121 4.1556 66.1504 4.25977L66.0469 4.54883C65.8112 4.44987 65.582 4.40039 65.3594 4.40039C65.1836 4.40039 65.0462 4.43815 64.9473 4.51367C64.8483 4.58919 64.7988 4.69401 64.7988 4.82812C64.7988 4.92708 64.8171 5.00846 64.8535 5.07227C64.89 5.13477 64.9512 5.19271 65.0371 5.24609C65.1243 5.29818 65.2572 5.35612 65.4355 5.41992C65.735 5.52669 65.9408 5.64128 66.0527 5.76367C66.166 5.88607 66.2227 6.04492 66.2227 6.24023ZM68.2227 7V5.61523C68.2227 5.44076 68.1829 5.31055 68.1035 5.22461C68.0241 5.13867 67.8997 5.0957 67.7305 5.0957C67.5065 5.0957 67.3424 5.15625 67.2383 5.27734C67.1341 5.39844 67.082 5.59831 67.082 5.87695V7H66.7578V4.85938H67.0215L67.0742 5.15234H67.0898C67.1562 5.04688 67.2493 4.96549 67.3691 4.9082C67.4889 4.84961 67.6224 4.82031 67.7695 4.82031C68.0273 4.82031 68.2214 4.88281 68.3516 5.00781C68.4818 5.13151 68.5469 5.33008 68.5469 5.60352V7H68.2227ZM70.5312 7L70.4668 6.69531H70.4512C70.3444 6.82943 70.2376 6.92057 70.1309 6.96875C70.0254 7.01562 69.8932 7.03906 69.7344 7.03906C69.5221 7.03906 69.3555 6.98438 69.2344 6.875C69.1146 6.76562 69.0547 6.61003 69.0547 6.4082C69.0547 5.97591 69.4004 5.74935 70.0918 5.72852L70.4551 5.7168V5.58398C70.4551 5.41602 70.4186 5.29232 70.3457 5.21289C70.2741 5.13216 70.1589 5.0918 70 5.0918C69.8216 5.0918 69.6198 5.14648 69.3945 5.25586L69.2949 5.00781C69.4004 4.95052 69.5156 4.9056 69.6406 4.87305C69.7669 4.84049 69.8932 4.82422 70.0195 4.82422C70.2747 4.82422 70.4635 4.88086 70.5859 4.99414C70.7096 5.10742 70.7715 5.28906 70.7715 5.53906V7H70.5312ZM69.7988 6.77148C70.0007 6.77148 70.1589 6.71615 70.2734 6.60547C70.3893 6.49479 70.4473 6.33984 70.4473 6.14062V5.94727L70.123 5.96094C69.8652 5.97005 69.679 6.01042 69.5645 6.08203C69.4512 6.15234 69.3945 6.26237 69.3945 6.41211C69.3945 6.5293 69.4297 6.61849 69.5 6.67969C69.5716 6.74089 69.6712 6.77148 69.7988 6.77148ZM71.7656 7H71.4414V4.85938H71.7656V7ZM71.4141 4.2793C71.4141 4.20508 71.4323 4.15104 71.4688 4.11719C71.5052 4.08203 71.5508 4.06445 71.6055 4.06445C71.6576 4.06445 71.7025 4.08203 71.7402 4.11719C71.778 4.15234 71.7969 4.20638 71.7969 4.2793C71.7969 4.35221 71.778 4.4069 71.7402 4.44336C71.7025 4.47852 71.6576 4.49609 71.6055 4.49609C71.5508 4.49609 71.5052 4.47852 71.4688 4.44336C71.4323 4.4069 71.4141 4.35221 71.4141 4.2793ZM72.7773 7H72.4531V3.96094H72.7773V7ZM75.793 5.54492C75.793 6.01628 75.6647 6.37695 75.4082 6.62695C75.153 6.87565 74.7852 7 74.3047 7H73.5137V4.14453H74.3887C74.8327 4.14453 75.1777 4.26758 75.4238 4.51367C75.6699 4.75977 75.793 5.10352 75.793 5.54492ZM75.4414 5.55664C75.4414 5.18424 75.3477 4.90365 75.1602 4.71484C74.974 4.52604 74.6966 4.43164 74.3281 4.43164H73.8457V6.71289H74.25C74.6458 6.71289 74.9434 6.61589 75.1426 6.42188C75.3418 6.22656 75.4414 5.93815 75.4414 5.55664ZM78.9102 5.56836C78.9102 6.02539 78.7943 6.38477 78.5625 6.64648C78.332 6.9082 78.0111 7.03906 77.5996 7.03906C77.179 7.03906 76.8542 6.91081 76.625 6.6543C76.3971 6.39648 76.2832 6.0332 76.2832 5.56445C76.2832 5.09961 76.3978 4.73958 76.627 4.48438C76.8561 4.22786 77.1816 4.09961 77.6035 4.09961C78.0137 4.09961 78.334 4.22982 78.5645 4.49023C78.7949 4.75065 78.9102 5.11003 78.9102 5.56836ZM76.6348 5.56836C76.6348 5.95508 76.7168 6.2487 76.8809 6.44922C77.0462 6.64844 77.2858 6.74805 77.5996 6.74805C77.916 6.74805 78.1549 6.64844 78.3164 6.44922C78.4779 6.25 78.5586 5.95638 78.5586 5.56836C78.5586 5.18424 78.4779 4.89323 78.3164 4.69531C78.1562 4.49609 77.9186 4.39648 77.6035 4.39648C77.2871 4.39648 77.0462 4.49674 76.8809 4.69727C76.7168 4.89648 76.6348 5.18685 76.6348 5.56836ZM81.1602 6.24023C81.1602 6.49154 81.069 6.6875 80.8867 6.82812C80.7044 6.96875 80.457 7.03906 80.1445 7.03906C79.806 7.03906 79.5456 6.99544 79.3633 6.9082V6.58789C79.4805 6.63737 79.6081 6.67643 79.7461 6.70508C79.8841 6.73372 80.0208 6.74805 80.1562 6.74805C80.3776 6.74805 80.5443 6.70638 80.6562 6.62305C80.7682 6.53841 80.8242 6.42122 80.8242 6.27148C80.8242 6.17253 80.804 6.0918 80.7637 6.0293C80.7246 5.96549 80.6582 5.9069 80.5645 5.85352C80.472 5.80013 80.3307 5.73958 80.1406 5.67188C79.875 5.57682 79.6849 5.46419 79.5703 5.33398C79.457 5.20378 79.4004 5.03385 79.4004 4.82422C79.4004 4.60417 79.4831 4.42904 79.6484 4.29883C79.8138 4.16862 80.0326 4.10352 80.3047 4.10352C80.5885 4.10352 80.8496 4.1556 81.0879 4.25977L80.9844 4.54883C80.7487 4.44987 80.5195 4.40039 80.2969 4.40039C80.1211 4.40039 79.9837 4.43815 79.8848 4.51367C79.7858 4.58919 79.7363 4.69401 79.7363 4.82812C79.7363 4.92708 79.7546 5.00846 79.791 5.07227C79.8275 5.13477 79.8887 5.19271 79.9746 5.24609C80.0618 5.29818 80.1947 5.35612 80.373 5.41992C80.6725 5.52669 80.8783 5.64128 80.9902 5.76367C81.1035 5.88607 81.1602 6.04492 81.1602 6.24023ZM83.0957 4.93164C82.9329 4.93164 82.8073 4.98828 82.7188 5.10156C82.6315 5.21484 82.5879 5.37174 82.5879 5.57227C82.5879 5.79102 82.6289 5.95312 82.7109 6.05859C82.7943 6.16406 82.9212 6.2168 83.0918 6.2168C83.2038 6.2168 83.3411 6.1875 83.5039 6.12891V6.37109C83.4414 6.39714 83.377 6.41927 83.3105 6.4375C83.2454 6.45573 83.1673 6.46484 83.0762 6.46484C82.8236 6.46484 82.6296 6.38672 82.4941 6.23047C82.3587 6.07292 82.291 5.85352 82.291 5.57227C82.291 5.30013 82.3626 5.08398 82.5059 4.92383C82.6504 4.76367 82.847 4.68359 83.0957 4.68359C83.2624 4.68359 83.4225 4.72266 83.5762 4.80078L83.4629 5.03125C83.3223 4.96484 83.1999 4.93164 83.0957 4.93164ZM81.5469 5.57227C81.5469 5.31185 81.612 5.06771 81.7422 4.83984C81.8724 4.61198 82.0514 4.43229 82.2793 4.30078C82.5072 4.16927 82.7526 4.10352 83.0156 4.10352C83.276 4.10352 83.5202 4.16862 83.748 4.29883C83.9759 4.42904 84.1556 4.60807 84.2871 4.83594C84.4186 5.0638 84.4844 5.30924 84.4844 5.57227C84.4844 5.82878 84.4212 6.06966 84.2949 6.29492C84.1686 6.52018 83.9915 6.70052 83.7637 6.83594C83.5358 6.97135 83.2865 7.03906 83.0156 7.03906C82.7461 7.03906 82.4974 6.97201 82.2695 6.83789C82.0417 6.70247 81.8639 6.52214 81.7363 6.29688C81.61 6.07161 81.5469 5.83008 81.5469 5.57227ZM81.752 5.57227C81.752 5.79753 81.8086 6.00846 81.9219 6.20508C82.0352 6.40039 82.1895 6.55469 82.3848 6.66797C82.5814 6.77995 82.7917 6.83594 83.0156 6.83594C83.2422 6.83594 83.4525 6.7793 83.6465 6.66602C83.8405 6.55273 83.9941 6.39974 84.1074 6.20703C84.222 6.01302 84.2793 5.80143 84.2793 5.57227C84.2793 5.3457 84.2227 5.13542 84.1094 4.94141C83.9961 4.7474 83.8424 4.59375 83.6484 4.48047C83.4557 4.36589 83.2448 4.30859 83.0156 4.30859C82.7891 4.30859 82.5788 4.36523 82.3848 4.47852C82.1908 4.5918 82.0365 4.74544 81.9219 4.93945C81.8086 5.13216 81.752 5.3431 81.752 5.57227ZM86.9902 7H86.6582V4.43945H85.7539V4.14453H87.8945V4.43945H86.9902V7ZM89.1816 7.03906C88.8652 7.03906 88.6152 6.94271 88.4316 6.75C88.2493 6.55729 88.1582 6.28971 88.1582 5.94727C88.1582 5.60221 88.2428 5.32812 88.4121 5.125C88.5827 4.92188 88.8112 4.82031 89.0977 4.82031C89.3659 4.82031 89.5781 4.90885 89.7344 5.08594C89.8906 5.26172 89.9688 5.49414 89.9688 5.7832V5.98828H88.4941C88.5007 6.23958 88.5638 6.43034 88.6836 6.56055C88.8047 6.69076 88.9746 6.75586 89.1934 6.75586C89.4238 6.75586 89.6517 6.70768 89.877 6.61133V6.90039C89.7624 6.94987 89.6536 6.98503 89.5508 7.00586C89.4492 7.02799 89.3262 7.03906 89.1816 7.03906ZM89.0938 5.0918C88.9219 5.0918 88.7845 5.14779 88.6816 5.25977C88.5801 5.37174 88.5202 5.52669 88.502 5.72461H89.6211C89.6211 5.52018 89.5755 5.36393 89.4844 5.25586C89.3932 5.14648 89.263 5.0918 89.0938 5.0918ZM91.8398 7L91.7754 6.69531H91.7598C91.653 6.82943 91.5462 6.92057 91.4395 6.96875C91.334 7.01562 91.2018 7.03906 91.043 7.03906C90.8307 7.03906 90.6641 6.98438 90.543 6.875C90.4232 6.76562 90.3633 6.61003 90.3633 6.4082C90.3633 5.97591 90.709 5.74935 91.4004 5.72852L91.7637 5.7168V5.58398C91.7637 5.41602 91.7272 5.29232 91.6543 5.21289C91.5827 5.13216 91.4674 5.0918 91.3086 5.0918C91.1302 5.0918 90.9284 5.14648 90.7031 5.25586L90.6035 5.00781C90.709 4.95052 90.8242 4.9056 90.9492 4.87305C91.0755 4.84049 91.2018 4.82422 91.3281 4.82422C91.5833 4.82422 91.7721 4.88086 91.8945 4.99414C92.0182 5.10742 92.0801 5.28906 92.0801 5.53906V7H91.8398ZM91.1074 6.77148C91.3092 6.77148 91.4674 6.71615 91.582 6.60547C91.6979 6.49479 91.7559 6.33984 91.7559 6.14062V5.94727L91.4316 5.96094C91.1738 5.97005 90.9876 6.01042 90.873 6.08203C90.7598 6.15234 90.7031 6.26237 90.7031 6.41211C90.7031 6.5293 90.7383 6.61849 90.8086 6.67969C90.8802 6.74089 90.9798 6.77148 91.1074 6.77148ZM95.4785 7V5.60742C95.4785 5.43685 95.4421 5.30924 95.3691 5.22461C95.2962 5.13867 95.1829 5.0957 95.0293 5.0957C94.8275 5.0957 94.6784 5.15365 94.582 5.26953C94.4857 5.38542 94.4375 5.5638 94.4375 5.80469V7H94.1133V5.60742C94.1133 5.43685 94.0768 5.30924 94.0039 5.22461C93.931 5.13867 93.8171 5.0957 93.6621 5.0957C93.459 5.0957 93.3099 5.1569 93.2148 5.2793C93.1211 5.40039 93.0742 5.59961 93.0742 5.87695V7H92.75V4.85938H93.0137L93.0664 5.15234H93.082C93.1432 5.04818 93.2292 4.9668 93.3398 4.9082C93.4518 4.84961 93.5768 4.82031 93.7148 4.82031C94.0495 4.82031 94.2682 4.94141 94.3711 5.18359H94.3867C94.4505 5.07161 94.543 4.98307 94.6641 4.91797C94.7852 4.85286 94.9232 4.82031 95.0781 4.82031C95.3203 4.82031 95.5013 4.88281 95.6211 5.00781C95.7422 5.13151 95.8027 5.33008 95.8027 5.60352V7H95.4785Z" opacity=".7" transform="translate(0 75)"/></g><defs><radialGradient id="paint0_radial" cx="0" cy="0" r="1" gradientTransform="translate(388.46 127) rotate(-161.898) scale(408.731 1278.47)" gradientUnits="userSpaceOnUse"><stop stop-color="#8817FB"/><stop stop-color="#1400FF"/><stop offset="1" stop-color="#BD00FF"/></radialGradient></defs></svg>